<?xml version="1.0" encoding="UTF-8"?>
<svg width="100" height="100" viewBox="0 0 100 100" xmlns="http://www.w3.org/2000/svg">
  <defs>
    <linearGradient id="logoGradient" x1="0%" y1="0%" x2="100%" y2="100%">
      <stop offset="0%" stop-color="#ff0000" />
      <stop offset="16.67%" stop-color="#ff9900" />
      <stop offset="33.33%" stop-color="#ffff00" />
      <stop offset="50%" stop-color="#33cc33" />
      <stop offset="66.67%" stop-color="#3399ff" />
      <stop offset="83.33%" stop-color="#9933ff" />
      <stop offset="100%" stop-color="#ff33cc" />
    </linearGradient>
  </defs>
  
  <!-- Main circle splash with rainbow gradient -->
  <circle cx="50" cy="50" r="35" fill="url(#logoGradient)" />
  
  <!-- Inner drop shadow effect -->
  <circle cx="50" cy="50" r="30" fill="white" opacity="0.2" />
  
  <!-- Color splash rays -->
  <g>
    <path d="M50 15 L55 5 L50 10 Z" fill="#ff0000" />
    <path d="M70 22 L85 15 L75 25 Z" fill="#ff9900" />
    <path d="M78 50 L95 50 L85 55 Z" fill="#ffff00" />
    <path d="M70 78 L85 85 L75 75 Z" fill="#33cc33" />
    <path d="M50 85 L55 95 L45 90 Z" fill="#3399ff" />
    <path d="M30 78 L15 85 L25 75 Z" fill="#9933ff" />
    <path d="M22 50 L5 50 L15 45 Z" fill="#ff33cc" />
    <path d="M30 22 L15 15 L25 25 Z" fill="#ff0000" />
  </g>
  
  <!-- Central paint drop -->
  <circle cx="50" cy="50" r="20" fill="white" />
  
  <!-- Paint drip details -->
  <path d="M45 65 Q40 75 35 85 Q45 80 50 75 Q55 80 65 85 Q60 75 55 65" fill="url(#logoGradient)" />
</svg>