<?xml version="1.0" encoding="UTF-8"?>
<svg width="100" height="100" viewBox="0 0 100 100" xmlns="http://www.w3.org/2000/svg">
  <!-- Same logo structure but with white color scheme for dark backgrounds -->
  
  <!-- Main circle splash with white -->
  <circle cx="50" cy="50" r="35" fill="white" />
  
  <!-- Inner drop shadow effect -->
  <circle cx="50" cy="50" r="30" fill="white" opacity="0.7" />
  
  <!-- Color splash rays (white) -->
  <g>
    <path d="M50 15 L55 5 L50 10 Z" fill="white" />
    <path d="M70 22 L85 15 L75 25 Z" fill="white" />
    <path d="M78 50 L95 50 L85 55 Z" fill="white" />
    <path d="M70 78 L85 85 L75 75 Z" fill="white" />
    <path d="M50 85 L55 95 L45 90 Z" fill="white" />
    <path d="M30 78 L15 85 L25 75 Z" fill="white" />
    <path d="M22 50 L5 50 L15 45 Z" fill="white" />
    <path d="M30 22 L15 15 L25 25 Z" fill="white" />
  </g>
  
  <!-- Central paint drop -->
  <circle cx="50" cy="50" r="20" fill="white" />
  
  <!-- Paint drip details -->
  <path d="M45 65 Q40 75 35 85 Q45 80 50 75 Q55 80 65 85 Q60 75 55 65" fill="white" opacity="0.9" />
</svg>