<?xml version="1.0" encoding="UTF-8"?>
<svg width="600" height="400" viewBox="0 0 600 400" xmlns="http://www.w3.org/2000/svg">
  <defs>
    <!-- Lighting filter for 3D effect -->
    <filter id="lighting" x="-50%" y="-50%" width="200%" height="200%">
      <feGaussianBlur in="SourceAlpha" stdDeviation="3" result="blur" />
      <feOffset in="blur" dx="4" dy="4" result="offsetBlur" />
      <feSpecularLighting in="blur" surfaceScale="5" specularConstant="1" specularExponent="20" lighting-color="#ffffff" result="specular">
        <fePointLight x="50" y="50" z="100" />
      </feSpecularLighting>
      <feComposite in="specular" in2="SourceAlpha" operator="in" result="specular2" />
      <feComposite in="SourceGraphic" in2="specular2" operator="arithmetic" k1="0" k2="1" k3="1" k4="0" />
    </filter>
    
    <!-- Gradient for cubes -->
    <linearGradient id="cube1-top" x1="0%" y1="0%" x2="100%" y2="0%">
      <stop offset="0%" stop-color="#f368e0" />
      <stop offset="100%" stop-color="#ff9ff3" />
    </linearGradient>
    <linearGradient id="cube1-left" x1="0%" y1="0%" x2="100%" y2="0%">
      <stop offset="0%" stop-color="#d63031" />
      <stop offset="100%" stop-color="#e84393" />
    </linearGradient>
    <linearGradient id="cube1-right" x1="0%" y1="0%" x2="100%" y2="0%">
      <stop offset="0%" stop-color="#6c5ce7" />
      <stop offset="100%" stop-color="#a29bfe" />
    </linearGradient>
    
    <linearGradient id="cube2-top" x1="0%" y1="0%" x2="100%" y2="0%">
      <stop offset="0%" stop-color="#00b894" />
      <stop offset="100%" stop-color="#55efc4" />
    </linearGradient>
    <linearGradient id="cube2-left" x1="0%" y1="0%" x2="100%" y2="0%">
      <stop offset="0%" stop-color="#0984e3" />
      <stop offset="100%" stop-color="#74b9ff" />
    </linearGradient>
    <linearGradient id="cube2-right" x1="0%" y1="0%" x2="100%" y2="0%">
      <stop offset="0%" stop-color="#fdcb6e" />
      <stop offset="100%" stop-color="#ffeaa7" />
    </linearGradient>
  </defs>
  
  <!-- Background with a slight texture for depth -->
  <rect width="600" height="400" fill="#f5f6fa" />
  <pattern id="pattern1" patternUnits="userSpaceOnUse" width="50" height="50" patternTransform="rotate(45)">
    <rect width="50" height="50" fill="#f5f6fa" />
    <rect width="25" height="25" fill="#dfe6e9" fill-opacity="0.3" />
  </pattern>
  <rect width="600" height="400" fill="url(#pattern1)" opacity="0.5" />
  
  <!-- 3D Cube 1 - Left Side -->
  <g transform="translate(150, 200)" filter="url(#lighting)">
    <!-- Cube left side -->
    <path d="M0,0 L0,-100 L50,-130 L50,-30 Z" fill="url(#cube1-left)" />
    <!-- Cube right side -->
    <path d="M50,-30 L50,-130 L150,-100 L150,0 Z" fill="url(#cube1-right)" />
    <!-- Cube top -->
    <path d="M0,0 L50,-30 L150,0 L100,30 Z" fill="url(#cube1-top)" />
    
    <!-- Shadow -->
    <ellipse cx="75" cy="70" rx="75" ry="30" fill="#2d3436" opacity="0.1" />
  </g>
  
  <!-- 3D Cube 2 - Right Side -->
  <g transform="translate(350, 150)" filter="url(#lighting)">
    <!-- Cube left side -->
    <path d="M0,0 L0,-80 L40,-110 L40,-30 Z" fill="url(#cube2-left)" />
    <!-- Cube right side -->
    <path d="M40,-30 L40,-110 L120,-80 L120,0 Z" fill="url(#cube2-right)" />
    <!-- Cube top -->
    <path d="M0,0 L40,-30 L120,0 L80,30 Z" fill="url(#cube2-top)" />
    
    <!-- Shadow -->
    <ellipse cx="60" cy="60" rx="60" ry="25" fill="#2d3436" opacity="0.1" />
  </g>
  
  <!-- Connecting elements -->
  <line x1="180" y1="150" x2="350" y2="120" stroke="#a4b0be" stroke-width="2" stroke-dasharray="5,5" />
  <circle cx="180" cy="150" r="5" fill="#5352ed" />
  <circle cx="350" cy="120" r="5" fill="#2ed573" />
  
  <!-- Title -->
  <text x="300" y="350" font-family="Arial" font-size="24" fill="#2d3436" text-anchor="middle">3D Design Elements</text>
</svg>